<svg xmlns="http://www.w3.org/2000/svg" viewBox="0 0 390.36 497.08"><defs><style>.a{fill:#fff;}</style></defs><title>Target_logo</title><path class="a" d="M217.07,360.93A129,129,0,1,1,346.12,232a129,129,0,0,1-129,129m0-322.47C110.28,38.46,23.68,125.08,23.68,232s86.6,193.39,193.39,193.39S410.65,338.75,410.65,232,323.92,38.46,217.07,38.46Z" transform="translate(-20.82 -38.46)"/><path class="a" d="M217.07,165.65A66.29,66.29,0,1,0,283.44,232a66.22,66.22,0,0,0-66.37-66.31" transform="translate(-20.82 -38.46)"/><polyline class="a" points="21.33 437.36 0 437.36 0 424.19 58.31 424.19 58.31 437.36 36.98 437.36 36.98 495.37 21.33 495.37 21.33 437.36"/><path class="a" d="M72.36,533.83H88.2L93.79,518H120.4l5.39,15.85H142l-26.62-71.18h-16l-27,71.18m34.79-53.64h.19l9,26.12H97.88Z" transform="translate(-20.82 -38.46)"/><path class="a" d="M148.21,533.83h15.66V506h15.64c7.88,0,10.77,3.29,11.86,10.76.81,5.68.61,12.56,2.5,17.05h15.64c-2.78-4-2.68-12.37-3-16.85-.5-7.19-2.68-14.66-10.36-16.65v-.2c7.88-3.19,11.27-9.46,11.27-17.84,0-10.76-8.08-19.63-20.84-19.63H148.21v71.17m15.66-59H181c7,0,10.75,3,10.75,9.87,0,7.17-3.79,10.17-10.75,10.17H163.87Z" transform="translate(-20.82 -38.46)"/><path class="a" d="M269.62,525.75a24.06,24.06,0,0,1-19.53,9.79c-22,0-35-16.47-35-37,0-21.12,13-37.56,35-37.56,14.55,0,28.31,9,30,25.1h-15c-1.8-7.88-7.68-11.95-15-11.95-14.06,0-19.35,11.95-19.35,24.41,0,11.87,5.29,23.83,19.35,23.83,10.17,0,16-5.48,16.94-15.36H251.29V495.35h29.9v38.48h-10l-1.59-8.08" transform="translate(-20.82 -38.46)"/><polyline class="a" points="271.04 424.19 324.25 424.19 324.25 437.36 286.68 437.36 286.68 452.6 321.17 452.6 321.17 464.77 286.68 464.77 286.68 482.21 325.06 482.21 325.06 495.37 271.04 495.37 271.04 424.19"/><polyline class="a" points="353.37 437.36 332.03 437.36 332.03 424.19 390.36 424.19 390.36 437.36 369.01 437.36 369.01 495.37 353.37 495.37 353.37 437.36"/></svg>