<?xml version="1.0" encoding="utf-8"?>
<!-- Generator: Adobe Illustrator 22.0.1, SVG Export Plug-In . SVG Version: 6.00 Build 0)  -->
<svg version="1.1" id="Layer_1" xmlns="http://www.w3.org/2000/svg" xmlns:xlink="http://www.w3.org/1999/xlink" x="0px" y="0px"
	 viewBox="0 0 417.1 459.4" style="enable-background:new 0 0 417.1 459.4;" xml:space="preserve">
<style type="text/css">
	.st0{fill:#FFFFFF;}
	.st1{enable-background:new    ;}
</style>
<g id="Group_42" transform="translate(3149 24.361)">
	<g id="Group_2" transform="translate(455.753 247.863)">
		<g transform="matrix(1, 0, 0, 1, -3604.75, -272.22)">
			<path id="Path_69-2" class="st0" d="M235,114c0.2-0.8,0.4-1.6,0.5-2.5c0-0.3,0.3-1.1,0.8-3.6c1.4-4.9-10.4-6-12.3,0.8
				c-1.2,4.4-2.3,8.7-3.2,13l-3.9,6.4c-3.9,6.8-8.5,13.2-13.7,19.1c-3.6,3.8-9.3,10.1-8.7-0.3c0.8-10.9,8.7-35,9-41
				c-3.6-7.7-12-2.2-12.8,0.5c-3.1,9.6-5.5,19.3-7.1,29.3c-1.1,5.5-0.8,11.1,1.1,16.4c3.6,9,14.2,3.8,19.7-3
				c5.9-6.3,10.7-13.7,15.1-21c-1.7,8.3-3.1,16.2-5,23.7c-0.5,5.5,10.6,7.1,12,0.3c1.1-6,5.7-27.3,7.4-31.7c1.1-3.6,8.2-12,10.6-12
				c2.7,0,1.1,7.6-2.7,22.9l-4.7,18.3c-2.7,10.4-3.6,23.2,8.2,23.2c5.1,0,10.5-5.2,28-38.7c-0.5,14.1,14.3,14.5,29-5.5
				c-1.9,13.1-7.1,33.3,6,32.2c12-1.1,26.8-33,33.6-42.3c12.8-16.4,33.6,1.4,54.1-9c14.5-6.8,14.5-19.7,7.6-20.2
				c-3.6-0.3-4.1,4.4-1.9,3.6c1.2-0.7,2.8-0.3,3.5,0.9c0.1,0.2,0.2,0.5,0.3,0.7c0.3,5.7-4.9,9.6-9.6,12.6
				c-16.7,10.9-39.1-5.5-52.7,7.1c-2.1,1.8-3.8,3.9-5.2,6.3c-11.4,20.5-16.9,28.1-22,33.3c-9.6,9.6,0.3-28.4,1.4-31.9
				c1.6-5.2-5.7-9-12.6,0.3c-28.7,38.8-15.6,0.3-7.1-12.3c4.4-6.5,10.9-3.3,4.9,10.4c-0.5,0.8,0.8,1.9,1.4,1.1
				c1.8-2.9,2.9-6.2,3.3-9.6c1.1-10.4-7.6-12.6-16.4-7.4c-4.9,2.7-9.6,7.6-13.1,14.7c-1,2-1.9,4.1-2.6,6.2
				c-13.9,26.1-19.6,36.6-24.7,42.2c-9.3,9.3-2.5-11.7,2.7-30.9c7.1-27.6,0.8-33-7.1-31.4C242.4,106,237.7,110.7,235,114z"/>
		</g>
		<path id="Path_68" class="st0" d="M-3398.4-188.6c-0.8-3.6-10.4-1.1-7.6,4.1l5.2,5.2C-3400.1-178.7-3398.4-188-3398.4-188.6z"/>
		<g transform="matrix(1, 0, 0, 1, -3604.75, -272.22)">
			<path id="Path_70-2" class="st0" d="M244.3,188.8l-7.9,18.5h4.1l1.7-4.1h7.8l1.7,4.1h4.2l-7.9-18.5H244.3z M243.7,199.6l2.4-6
				l2.4,6H243.7z"/>
		</g>
		<g transform="matrix(1, 0, 0, 1, -3604.75, -272.22)">
			<path id="Path_65-2" class="st0" d="M87.3,177.3c-14.3,6.2-65.2,3.1-65.3,26.1c-0.5,10.9,11.2,17.4,21.8,16.3
				c16.9-1.6,23.6-14.4,15.3-17.4c-1.8-0.1-3.5,0.6-4.6,2.1c-2.1,3.6,1.1,7.6,1.1,7.6c-10.6,10.4-32.1,4-30.9-8.3
				c-0.1-20.5,53-16.4,65.4-23.4c-20.9,20-31.7,138.4-62.6,138.6c-21.5,0-22.5-59,9.5-66c2.4-0.6,8.5-0.3,6.9,1.7
				c-3.7,4.2-0.7,13.1,6.5,8.3c5.3-3.7-1.3-15.5-13.2-13C8.4,256,2.1,299.4,16.3,317c5.7,7.2,12.9,8.9,19.9,7.3
				c27.9-6.3,35.8-53.6,43.1-81.1c6.3-24.8,12.9-51,17.2-60.9C98.3,178.1,94.1,174.4,87.3,177.3z"/>
		</g>
		<g transform="matrix(1, 0, 0, 1, -3604.75, -272.22)">
			<path id="Path_66-2" class="st0" d="M402.7,239.3c-3.6-0.2-4,4.5-1.8,3.6c1.2-0.8,2.8-0.4,3.6,0.8c0.1,0.2,0.2,0.5,0.3,0.7
				c0.5,5.7-4.6,9.7-9.2,12.9c-14.7,10.3-40-4.2-53.5,9.6l9.9-41.3c1.7-6.6-8.5-10.1-14.2,0.7c-6.7,12.8-18.3,34.5-20.5,35.1
				c-7.8,2.7,4-30.2,5.2-34.3c2.5-8.8-8.2-10.1-11.8-1.3c-2.9,7.3-5.1,14.8-6.6,22.5l-0.3,0.4c-5.2,8.1-13.1,17.4-20.6,23
				c-8.8,6.6-12.5,3.1-11.4-6.2c0.1-4.4,1.8-13.2,4.1-17.9c16.4-9.5,17.5-24.3,4.7-23.4c-4.7,0.4-15.6,7-20.5,28.4
				c-0.8,1.3-1.5,2.7-2.3,4l-6.5,10.6c-2.3,3.9-4.7,7.3-6.8,10.3c-2.7,3.4-7.1,10.3-10.1,10.4c-2.5,0.1-1.4-8.7-1.4-9.5
				c1.7-7.4,5.4-19.6,6.9-25.4c2.5-8,0.5-11.5-2.6-12.2c-5.5-1.5-6.7,2.9-11.1,4.4c-5.1,1.8,7.8-20.2-0.1-21
				c-11.7-1.3-13.2,12.2-11.4,21.4l-1.8,3.1c-2.7,4.5-6.4,8.3-10.9,11c-4.8,3.3-10.4,5.4-16.2,6.2c1.2-6,2.7-18.4,5.7-27
				c4.5-3.7,27.1-51.1,18.3-60.1c-2-2.1-7.7-2.2-12.7,5.6c-6.4,8.6-15,32.7-21.4,58.4l-4.2,7.2c-2.7,4.5-6.4,8.3-10.9,11
				c-4.8,3.3-10.4,5.4-16.2,6.2c1.2-6,2.7-18.4,5.7-27c4.5-3.7,27.1-51.1,18.3-60.1c-2-2.1-7.7-2.2-12.7,5.6
				c-6.6,8.9-15.5,34.1-21.9,60.6c-1.3,2.4-2.9,5-4.6,7.7c-5.2,8.1-13.1,17.4-20.6,23c-8.8,6.6-12.5,3.1-11.4-6.2
				c0.1-4.4,1.8-13.2,4.1-17.9c16.4-9.5,17.5-24.3,4.7-23.4c-4.9,0.4-16.7,7.6-21.1,31.5c-1.4,7.7-0.4,13.4,0.8,16.6
				c4.2,10.8,17.4,6,23,2c8.3-5.7,16.2-14.4,23-25.3l0.4-0.6c-1.7,7.8-3.2,15.7-4.3,23.1c-3.2,21.4-11.9,73.6,5.9,73.6
				c15.9,0,13.7-69.3,11.4-81l2.4-0.6c6.2-1,11.1-4.2,15.1-6.8c3.9-2.7,7.3-6,10.1-9.9c0.4-0.6,0.8-1.3,1.1-1.9
				c-1.9,8.5-3.6,17.1-4.8,25.2c-3.2,21.4-11.9,73.6,5.9,73.6c15.9,0,13.7-69.3,11.4-81l2.4-0.6c6.2-1,11.1-4.2,15.1-6.8
				c3.9-2.7,7.3-6,10.1-9.9c0.5-0.8,0.9-1.5,1.4-2.3c2.2,4.9,8,2,12.2-0.3c-1.9,7.7-7.2,24.5-6.3,34.6c0.2,6,4.5,11.9,9.9,9.8
				c1.3-0.6,3-0.4,8-5.4c6.2-6.2,13.1-17.3,19.6-28.5c-0.6,4.5-0.2,9.1,1.3,13.4c4.2,10.8,17.4,6,23,2c7.1-4.9,14-12,20-20.8
				c-0.6,7.3,0.7,12.9,5.7,13.5c5.8,0.7,9.2-1.4,14.5-9.2c4.2-6.1,9.6-16.7,14-24.5L326,276c-17,8.2-26.2,46.2-19.2,49.5
				c21.4,10.3,32.5-44.7,34.1-54.1c12.3-18.7,33.9-0.8,54.5-12.1C409.9,252.4,409.5,239.6,402.7,239.3z M282.8,231
				c5-5.6,7,4.7-5.6,12.7C279.4,236,281.2,233.5,282.8,231L282.8,231z M199.6,203.9c0.7-3,6.4-22.9,8.9-22.4
				c4.4,0.7-3.1,31.8-16.9,54.1C191.4,235.8,190.6,238.6,199.6,203.9L199.6,203.9z M158.4,205.1c0.7-3,6.4-22.9,8.9-22.4
				c4.4,0.7-3.1,31.8-16.9,54.1C150.2,237.1,149.4,239.8,158.4,205.1L158.4,205.1z M108.6,236.5c5-5.6,7,4.7-5.6,12.7
				C105.2,241.5,107,239,108.6,236.5L108.6,236.5z M139,343.5c-2.6,5.8-5.6,5.6-5.2-1.2c1.2-22.4,4-47.1,9.6-68.9
				C143.8,270.9,147.4,323.5,139,343.5L139,343.5z M180.2,342.2c-2.6,5.8-5.6,5.6-5.2-1.2c1.2-22.4,4-47.1,9.6-68.9
				C185.1,269.6,188.6,322.2,180.2,342.2L180.2,342.2z M307.7,323.4c-4.4-2,4.1-35.6,18-44C322,298.4,313.3,324.9,307.7,323.4
				L307.7,323.4z"/>
		</g>
		<g transform="matrix(1, 0, 0, 1, -3604.75, -272.22)">
			<path id="Path_67-2" class="st0" d="M105.8,97.3c9.8-3.8,20.2-13.4,26.8-22.4c1.1-1.6,0.3-4.4-1.4-1.9
				c-5.8,8.2-13.4,15.1-22.1,20.2c-22.9,13.1-25.1-10.1-12.8-21c12.8-12,39.9-12,53.5-13.1c-13.7,11.2-19.9,65.3-20.5,70.5
				c-2.5,20.8-6.6,42.9-14.7,59.8c-1.4,2.7-0.8,4.9,4.7,2.2c43.7-18.3,57.4-65,70.2-107.3c3.8-13.1,11.5-36.3,18.3-52.4
				c6-14.5,15.8-29,26.5-21c0.6,1.1,0.7,2.4,0.3,3.5c1.1,10.1,10.4,5.7,5.7-1.6c-6.3-10.1-18.3-7.7-24.9,0
				c-13.1,15.3-22.7,48.9-29.5,71.5c-11.5,38.2-25.7,83.8-60.6,100.5c8.2-7.7,15.6-21.6,17.8-44c1.4-13.7,7.1-59,13.4-79.2
				c2.7-8.5,3-10.1-3.3-10.4C136.7,50.4,111,59.1,99.3,67C80.4,79.6,82.9,106.6,105.8,97.3z"/>
		</g>
		<g transform="matrix(1, 0, 0, 1, -3604.75, -272.22)">
			<path id="Path_71-2" class="st0" d="M273.7,200.3l-8.6-11.3h-3.7v18.4h4v-11.7l8.9,11.7h3.4V189h-4L273.7,200.3z"/>
		</g>
		<g transform="matrix(1, 0, 0, 1, -3604.75, -272.22)">
			<path id="Path_72-2" class="st0" d="M291.8,188.9h-7.2v18.4h7.2c5.8,0,9.8-4,9.8-9.2V198C301.6,192.9,297.6,188.9,291.8,188.9z
				 M297.4,198.2c0.1,2.9-2.1,5.3-5,5.5c-0.2,0-0.4,0-0.6,0h-3.1v-11h3.1c2.9-0.1,5.4,2.1,5.5,5C297.4,197.8,297.4,198,297.4,198.2
				L297.4,198.2z"/>
		</g>
	</g>
	<g id="Group_4" transform="translate(-2 -14)">
		<g transform="matrix(1, 0, 0, 1, -3147, -10.36)">
			<g class="st1">
				<path class="st0" d="M87.5,412.4l1.9-1.6c1.4,2.1,2.9,3.3,5.3,3.3c2.6,0,4.5-1.9,4.5-5.5v-15.5h2.6v15.4c0,2.7-0.8,4.8-2.1,6.1
					c-1.3,1.3-3,1.9-5.1,1.9C91.2,416.5,89,414.8,87.5,412.4z"/>
				<path class="st0" d="M107.3,409.7v-10.6h2.5v10c0,3.2,1.7,5.1,4.7,5.1c2.9,0,5.1-2.1,5.1-5.3v-9.8h2.5v17.1h-2.5v-3
					c-1.2,1.8-2.9,3.3-5.8,3.3C109.7,416.5,107.3,413.8,107.3,409.7z"/>
				<path class="st0" d="M127.9,399.1h2.5v3c1.1-1.8,2.9-3.3,5.8-3.3c4.1,0,6.5,2.8,6.5,6.8v10.6h-2.5v-10c0-3.2-1.7-5.1-4.7-5.1
					c-2.9,0-5.1,2.1-5.1,5.3v9.8h-2.5V399.1z"/>
				<path class="st0" d="M147.2,407.7L147.2,407.7c0-5,3.5-8.9,8.2-8.9c5,0,8,4,8,9c0,0.3,0,0.5,0,0.8h-13.5c0.4,3.7,3,5.8,6,5.8
					c2.3,0,4-1,5.4-2.4l1.6,1.4c-1.7,1.9-3.8,3.2-7,3.2C151,416.6,147.2,413,147.2,407.7z M160.8,406.7c-0.3-3.1-2-5.8-5.4-5.8
					c-3,0-5.2,2.5-5.5,5.8H160.8z"/>
				<path class="st0" d="M186.3,414.1l8.4-7.4c3.5-3.2,4.8-5,4.8-7.3c0-2.7-2.1-4.4-4.7-4.4c-2.6,0-4.4,1.4-6.2,4l-1.9-1.4
					c2.1-3.1,4.3-4.9,8.3-4.9c4.2,0,7.2,2.8,7.2,6.5v0.1c0,3.4-1.8,5.4-5.8,9l-6.2,5.5h12.3v2.4h-16.1L186.3,414.1L186.3,414.1z"/>
				<path class="st0" d="M217.9,410.7h-12.2l-0.7-1.9l13.1-15.9h2.3v15.6h3.6v2.2h-3.6v5.5h-2.5L217.9,410.7L217.9,410.7z
					 M217.9,408.5v-11.9l-9.7,11.9H217.9z"/>
				<path class="st0" d="M257.1,414.1l8.4-7.4c3.5-3.2,4.8-5,4.8-7.3c0-2.7-2.1-4.4-4.7-4.4c-2.6,0-4.4,1.4-6.2,4l-1.9-1.4
					c2.1-3.1,4.3-4.9,8.3-4.9c4.2,0,7.2,2.8,7.2,6.5v0.1c0,3.4-1.8,5.4-5.8,9l-6.2,5.5h12.2v2.4h-16.1L257.1,414.1L257.1,414.1z"/>
				<path class="st0" d="M277.3,404.7L277.3,404.7c0-6.5,3.9-12,9.8-12c5.9,0,9.7,5.4,9.7,11.9v0.1c0,6.5-3.8,11.9-9.8,11.9
					C281.1,416.6,277.3,411.1,277.3,404.7z M294.1,404.7L294.1,404.7c0-5.1-2.8-9.6-7.1-9.6c-4.3,0-7,4.4-7,9.5v0.1
					c0,5,2.8,9.6,7.1,9.6C291.4,414.2,294.1,409.7,294.1,404.7z"/>
				<path class="st0" d="M304.6,395.6l-4.4,1.4l-0.6-2.1l5.6-1.9h1.9v23.3h-2.6v-20.7H304.6z"/>
				<path class="st0" d="M312.2,410L312.2,410c0-2.8,2-4.8,4.8-5.7c-2.1-1-4-2.6-4-5.3v-0.2c0-3.6,3.7-6.1,7.9-6.1
					c4.2,0,7.9,2.5,7.9,6.1v0.1c0,2.7-1.8,4.3-4,5.3c2.7,1,4.8,2.9,4.8,5.6v0.1c0,3.9-3.8,6.6-8.7,6.6
					C316,416.5,312.2,413.8,312.2,410z M326.9,409.9L326.9,409.9c0-2.6-2.7-4.5-6-4.5c-3.4,0-6,1.8-6,4.4v0.1c0,2.3,2.2,4.3,6,4.3
					S326.9,412.2,326.9,409.9z M326.2,399.1L326.2,399.1c0-2.3-2.3-4.1-5.3-4.1s-5.3,1.7-5.3,4v0.1c0,2.5,2.3,4.2,5.3,4.2
					S326.2,401.6,326.2,399.1z"/>
			</g>
		</g>
		<g transform="matrix(1, 0, 0, 1, -3147, -10.36)">
			<g class="st1">
				<path class="st0" d="M229.4,397.7c-0.8,1.3-2.6,5.1-3.7,6.2c-0.9,0.9-1.7,0.6-2,0.3c-1.5-1.5,0.7-8.2,0.8-8.8
					c-0.4,0.1-1.7,0.3-1.7-0.3c-0.1-0.6,0.7-0.4,0.7-0.2c0.1,0.2,0.8,0.2,1.2,0.2c0.3-1.1,0.4-1.4,0.8-2.3c0.4-1.1,2.1-1.1,1.8-0.1
					c-0.2,0.5-0.5,1.3-0.8,2.3c1.5-0.1,1.2,1.4,1.1,0.9c-0.1-0.4-0.5-0.6-1.2-0.5c-0.6,1.4-2.1,6.9-1.8,8.2c0.1,0.4,0.4,0.5,0.9,0.2
					c1-0.7,3.1-5,3.7-6.1L229.4,397.7z"/>
				<path class="st0" d="M237,398.1l-0.7,1.4c-0.6,1.1-1.7,3.3-2.9,4.7c-0.4,0.5-1.1,0.5-1.5,0c-0.5-0.6-0.2-1.6,0-2.6
					c0.9-3.5,1.2-4.7,1-4.7c-0.4,0-1.2,1.4-1.5,1.7l-1.3,2.1c-0.2,1-0.2,1.1-0.4,1.7c-0.3,0.8-1.5,0.8-1.5-0.1
					c0-0.6,1.8-12.9,4.9-13.1c1,0,1,1,0.7,1.8c-0.5,1.7-2.1,4.7-2.7,5.6l-0.8,3c1-1.7,1.3-2.2,1.9-2.7c0.7-0.8,1.5-1,1.9-0.2
					c0.5,1.1-1.2,6.3-1.3,6.5c-0.1,0.7-0.4,1.4,0.4,0.5c0.3-0.3,0.5-0.8,1-1.3c0.9-1.5,1.8-3.3,2.6-4.7
					C236.9,397.8,237.1,397.8,237,398.1z M231.2,396.2c0.9-1.4,3-5.6,2.3-6.3c-0.1-0.1-0.3,0-0.6,0.6
					C231.6,393.6,231.1,396.3,231.2,396.2z"/>
			</g>
		</g>
	</g>
</g>
</svg>
