<svg xmlns="http://www.w3.org/2000/svg" xmlns:xlink="http://www.w3.org/1999/xlink" viewBox="4358 10601.992 213.672 186.974">
  <defs>
    <style>
      .cls-1 {
        fill: #fff;
      }

      .cls-2 {
        filter: url(#Path_72);
      }

      .cls-3 {
        filter: url(#Path_71);
      }

      .cls-4 {
        filter: url(#Path_67);
      }

      .cls-5 {
        filter: url(#Path_66);
      }

      .cls-6 {
        filter: url(#Path_65);
      }

      .cls-7 {
        filter: url(#Path_70);
      }

      .cls-8 {
        filter: url(#Path_69);
      }
    </style>
    <filter id="Path_69" x="4443.304" y="10642.877" width="128.368" height="58.978" filterUnits="userSpaceOnUse">
      <feOffset dy="3" input="SourceAlpha"/>
      <feGaussianBlur stdDeviation="3" result="blur"/>
      <feFlood flood-opacity="0.161"/>
      <feComposite operator="in" in2="blur"/>
      <feComposite in="SourceGraphic"/>
    </filter>
    <filter id="Path_70" x="4469.503" y="10691.618" width="27.534" height="27.061" filterUnits="userSpaceOnUse">
      <feOffset dy="3" input="SourceAlpha"/>
      <feGaussianBlur stdDeviation="3" result="blur-2"/>
      <feFlood flood-opacity="0.161"/>
      <feComposite operator="in" in2="blur-2"/>
      <feComposite in="SourceGraphic"/>
    </filter>
    <filter id="Path_65" x="4358" y="10685.449" width="61.105" height="90.843" filterUnits="userSpaceOnUse">
      <feOffset dy="3" input="SourceAlpha"/>
      <feGaussianBlur stdDeviation="3" result="blur-3"/>
      <feFlood flood-opacity="0.161"/>
      <feComposite operator="in" in2="blur-3"/>
      <feComposite in="SourceGraphic"/>
    </filter>
    <filter id="Path_66" x="4395.069" y="10686.163" width="176.183" height="102.803" filterUnits="userSpaceOnUse">
      <feOffset dy="3" input="SourceAlpha"/>
      <feGaussianBlur stdDeviation="3" result="blur-4"/>
      <feFlood flood-opacity="0.161"/>
      <feComposite operator="in" in2="blur-4"/>
      <feComposite in="SourceGraphic"/>
    </filter>
    <filter id="Path_67" x="4396.087" y="10601.992" width="93.89" height="109.587" filterUnits="userSpaceOnUse">
      <feOffset dy="3" input="SourceAlpha"/>
      <feGaussianBlur stdDeviation="3" result="blur-5"/>
      <feFlood flood-opacity="0.161"/>
      <feComposite operator="in" in2="blur-5"/>
      <feComposite in="SourceGraphic"/>
    </filter>
    <filter id="Path_71" x="4481.706" y="10691.684" width="25.992" height="26.995" filterUnits="userSpaceOnUse">
      <feOffset dy="3" input="SourceAlpha"/>
      <feGaussianBlur stdDeviation="3" result="blur-6"/>
      <feFlood flood-opacity="0.161"/>
      <feComposite operator="in" in2="blur-6"/>
      <feComposite in="SourceGraphic"/>
    </filter>
    <filter id="Path_72" x="4493.141" y="10691.677" width="26.289" height="26.996" filterUnits="userSpaceOnUse">
      <feOffset dy="3" input="SourceAlpha"/>
      <feGaussianBlur stdDeviation="3" result="blur-7"/>
      <feFlood flood-opacity="0.161"/>
      <feComposite operator="in" in2="blur-7"/>
      <feComposite in="SourceGraphic"/>
    </filter>
  </defs>
  <g id="Group_42" data-name="Group 42" transform="translate(3251 10318.353)">
    <g id="Group_2" data-name="Group 2" transform="translate(1116 289.639)">
      <g class="cls-8" transform="matrix(1, 0, 0, 1, -4367, -10607.99)">
        <path id="Path_69-2" data-name="Path 69" class="cls-1" d="M1198.283,588.325a10.888,10.888,0,0,0,.267-1.206c0-.134.134-.535.4-1.741.668-2.412-5.088-2.933-6.027.4-.606,2.164-1.118,4.286-1.574,6.362l-1.907,3.142a59.068,59.068,0,0,1-6.695,9.371c-1.741,1.874-4.563,4.954-4.283-.134.4-5.355,4.283-17.138,4.42-20.081-1.74-3.752-5.893-1.072-6.294.267a96.5,96.5,0,0,0-3.481,14.342,14.887,14.887,0,0,0,.535,8.034c1.74,4.417,6.962,1.874,9.638-1.473a60.748,60.748,0,0,0,7.4-10.28c-.828,4.074-1.529,7.956-2.445,11.617-.267,2.679,5.215,3.481,5.89.137.535-2.933,2.813-13.39,3.615-15.531.535-1.741,4.016-5.89,5.215-5.89,1.34,0,.535,3.748-1.339,11.248l-2.282,8.97c-1.34,5.088-1.741,11.379,4.016,11.379,2.507,0,5.124-2.559,13.742-18.993-.254,6.917,7.031,7.119,14.237-2.7-.939,6.428-3.481,16.336,2.933,15.8,5.89-.535,13.122-16.2,16.467-20.753,6.294-8.035,16.467.671,26.509-4.42,7.1-3.347,7.1-9.638,3.748-9.905-1.741-.137-2.008,2.141-.939,1.741a1.266,1.266,0,0,1,1.874.805c.134,2.81-2.412,4.687-4.687,6.157-8.168,5.355-19.146-2.676-25.841,3.481a12.037,12.037,0,0,0-2.542,3.08c-5.59,10.029-8.269,13.778-10.8,16.32-4.687,4.687.134-13.924.668-15.662.8-2.546-2.813-4.42-6.16.134-14.058,19.009-7.63.134-3.481-6.027,2.141-3.211,5.355-1.607,2.409,5.088-.267.4.4.939.668.535a10.7,10.7,0,0,0,1.607-4.687c.535-5.088-3.748-6.157-8.035-3.615a16.464,16.464,0,0,0-6.428,7.229,27.25,27.25,0,0,0-1.278,3.028c-6.8,12.79-9.628,17.927-12.109,20.668-4.563,4.563-1.206-5.756,1.34-15.127,3.481-13.523.4-16.2-3.481-15.4C1201.894,584.443,1199.616,586.718,1198.283,588.325Z" transform="translate(3279.51 10072.59)"/>
      </g>
      <path id="Path_68" data-name="Path 68" class="cls-1" d="M1199.6,565.937c-.4-1.741-5.088-.535-3.748,2.008l2.542,2.542C1198.8,570.758,1199.6,566.2,1199.6,565.937Z" transform="translate(-1102.871 -527.872)"/>
      <g class="cls-7" transform="matrix(1, 0, 0, 1, -4367, -10607.99)">
        <path id="Path_70-2" data-name="Path 70" class="cls-1" d="M1257.026,725.82l-3.856,9.061h2.018l.821-2.018h3.8l.821,2.018h2.07l-3.856-9.061Zm-.31,5.3,1.2-2.933,1.2,2.933Z" transform="translate(3225.33 9971.8)"/>
      </g>
      <g class="cls-6" transform="matrix(1, 0, 0, 1, -4367, -10607.99)">
        <path id="Path_65-2" data-name="Path 65" class="cls-1" d="M949.487,707.415c-7,3.035-31.969,1.538-32.017,12.793-.235,5.365,5.492,8.533,10.7,7.969,8.282-.8,11.568-7.06,7.5-8.54a2.59,2.59,0,0,0-2.246,1.007c-1.017,1.773.518,3.735.518,3.735-5.215,5.117-15.746,1.956-15.134-4.081-.046-10.046,26-8.051,32.057-11.454-10.261,9.817-15.544,67.862-30.681,67.936-10.58.062-11.082-28.856,4.615-32.294,1.2-.3,4.149-.13,3.374.834-1.812,2.066-.326,6.437,3.207,4.052,2.608-1.822-.652-7.614-6.493-6.359-14.1,2.989-17.19,24.25-10.222,32.871a9.213,9.213,0,0,0,9.759,3.585c13.69-3.109,17.526-26.268,21.124-39.765,3.1-12.151,6.317-24.977,8.439-29.866C954.855,707.78,952.789,705.971,949.487,707.415Z" transform="translate(3455.92 9984.55)"/>
      </g>
      <g class="cls-5" transform="matrix(1, 0, 0, 1, -4367, -10607.99)">
        <path id="Path_66-2" data-name="Path 66" class="cls-1" d="M1180.736,739.274c-1.744-.082-1.939,2.2-.883,1.767a1.267,1.267,0,0,1,1.9.743c.222,2.806-2.262,4.759-4.491,6.3-7.207,5.046-19.622-2.063-26.242,4.707l4.86-20.248c.834-3.24-4.175-4.958-6.956.352-3.286,6.261-8.983,16.89-10.042,17.19-3.843,1.327,1.956-14.795,2.552-16.822,1.206-4.325-4.039-4.964-5.779-.623a61.618,61.618,0,0,0-3.259,11.027l-.124.2a47.558,47.558,0,0,1-10.1,11.3c-4.319,3.217-6.115,1.532-5.59-3.038a27.112,27.112,0,0,1,2-8.771c8.025-4.671,8.6-11.923,2.317-11.457-2.281.2-7.66,3.429-10.039,13.908-.372.652-.753,1.3-1.115,1.982l-3.188,5.189c-1.144,1.913-2.3,3.556-3.325,5.062-1.3,1.649-3.458,5.065-4.928,5.111-1.206.039-.671-4.267-.681-4.667.825-3.644,2.647-9.6,3.364-12.428,1.216-3.911.225-5.632-1.261-5.988-2.7-.72-3.305,1.444-5.424,2.181-2.516.883,3.843-9.9-.055-10.313-5.72-.616-6.49,5.961-5.587,10.486l-.883,1.509a15.913,15.913,0,0,1-5.323,5.391,18.762,18.762,0,0,1-7.94,3.064c.577-2.966,1.323-9.019,2.8-13.217,2.22-1.809,13.279-25.062,8.986-29.482-.978-1.043-3.784-1.089-6.209,2.741-3.145,4.221-7.366,16.007-10.489,28.608l-2.037,3.523a15.909,15.909,0,0,1-5.323,5.391,18.762,18.762,0,0,1-7.94,3.064c.577-2.966,1.326-9.019,2.8-13.217,2.22-1.809,13.279-25.062,8.986-29.482-.978-1.043-3.784-1.089-6.209,2.741-3.24,4.345-7.614,16.711-10.756,29.723-.652,1.186-1.4,2.451-2.252,3.771a47.556,47.556,0,0,1-10.1,11.3c-4.319,3.217-6.115,1.532-5.59-3.038a27.146,27.146,0,0,1,2-8.768c8.025-4.671,8.6-11.923,2.321-11.46-2.4.212-8.184,3.742-10.365,15.463a15.8,15.8,0,0,0,.391,8.149c2.041,5.3,8.53,2.934,11.281.978a41.843,41.843,0,0,0,11.265-12.412l.179-.284c-.851,3.843-1.574,7.682-2.112,11.33-1.545,10.5-5.834,36.082,2.875,36.079,7.771.023,6.7-33.967,5.587-39.69l1.2-.3a19.23,19.23,0,0,0,7.4-3.312,19.941,19.941,0,0,0,4.938-4.843q.283-.46.557-.919c-.949,4.185-1.757,8.386-2.344,12.36-1.545,10.5-5.834,36.082,2.875,36.079,7.77.023,6.7-33.967,5.587-39.69l1.2-.3a19.229,19.229,0,0,0,7.4-3.312,19.936,19.936,0,0,0,4.938-4.844q.352-.567.688-1.141c1.076,2.4,3.911.978,5.968-.14-.955,3.781-3.507,12.034-3.087,16.975.091,2.933,2.194,5.828,4.84,4.8.652-.287,1.467-.179,3.934-2.669,3.034-3.015,6.4-8.475,9.6-13.967a14.817,14.817,0,0,0,.619,6.548c2.04,5.293,8.53,2.933,11.281.978A39.809,39.809,0,0,0,1132,746.289c-.306,3.585.352,6.3,2.793,6.6,2.823.326,4.534-.678,7.093-4.508,2.047-3.012,4.7-8.184,6.845-12l-5.5,21.069c-8.312,4.012-12.819,22.637-9.42,24.273,10.473,5.029,15.922-21.93,16.715-26.509,6.01-9.162,16.6-.385,26.727-5.929C1184.288,745.725,1184.09,739.434,1180.736,739.274Zm-58.8-4.052c2.458-2.757,3.422,2.3-2.751,6.248a19.519,19.519,0,0,1,2.751-6.252ZM1081.2,721.9c.355-1.486,3.132-11.219,4.345-10.988,2.151.326-1.522,15.587-8.276,26.515-.127.134-.486,1.483,3.937-15.531Zm-20.208.632c.355-1.486,3.132-11.219,4.345-10.988,2.151.326-1.522,15.587-8.276,26.516-.124.134-.482,1.483,3.941-15.531ZM1036.542,737.9c2.458-2.754,3.422,2.3-2.751,6.248a20.04,20.04,0,0,1,2.774-6.252Zm14.905,52.444c-1.252,2.852-2.725,2.764-2.562-.59.59-11,1.956-23.1,4.7-33.768.251-1.216,2,24.583-2.115,34.354Zm20.208-.632c-1.252,2.852-2.725,2.764-2.562-.59.59-11,1.956-23.1,4.7-33.768.248-1.219,1.995,24.583-2.119,34.354Zm62.532-9.2c-2.174-1,2-17.474,8.833-21.574-1.832,9.3-6.111,22.291-8.814,21.571Z" transform="translate(3379.26 9983.08)"/>
      </g>
      <g class="cls-4" transform="matrix(1, 0, 0, 1, -4367, -10607.99)">
        <path id="Path_67-2" data-name="Path 67" class="cls-1" d="M1037.3,495.606c4.821-1.874,9.909-6.561,13.123-10.981.535-.8.134-2.141-.668-.935a34.686,34.686,0,0,1-10.844,9.905c-11.248,6.428-12.318-4.954-6.294-10.31,6.294-5.89,19.557-5.89,26.242-6.424-6.695,5.489-9.778,32-10.042,34.55-1.206,10.176-3.214,21.02-7.229,29.335-.671,1.34-.4,2.412,2.282,1.072,21.421-8.967,28.116-31.864,34.41-52.617a272.218,272.218,0,0,1,8.97-25.7c2.933-7.1,7.767-14.195,12.989-10.31a1.956,1.956,0,0,1,.134,1.74c.535,4.954,5.088,2.813,2.813-.8-3.08-4.954-8.97-3.752-12.184,0-6.427,7.5-11.111,23.967-14.459,35.075-5.622,18.745-12.585,41.1-29.723,49.273,4.016-3.752,7.63-10.58,8.7-21.555.668-6.695,3.481-28.921,6.561-38.826,1.339-4.153,1.473-4.954-1.607-5.088-8.034-.4-20.619,3.885-26.375,7.767C1024.851,486.9,1026.058,500.16,1037.3,495.606Z" transform="translate(3377.16 10157.15)"/>
      </g>
      <g class="cls-3" transform="matrix(1, 0, 0, 1, -4367, -10607.99)">
        <path id="Path_71-2" data-name="Path 71" class="cls-1" d="M1296.65,731.558l-4.218-5.538h-1.822v9h1.952V729.3l4.358,5.72h1.682v-9h-1.952Z" transform="translate(3200.1 9971.66)"/>
      </g>
      <g class="cls-2" transform="matrix(1, 0, 0, 1, -4367, -10607.99)">
        <path id="Path_72-2" data-name="Path 72" class="cls-1" d="M1329.2,726h-3.507v9h3.507a4.5,4.5,0,0,0,4.782-4.5v-.026A4.494,4.494,0,0,0,1329.2,726Zm2.712,4.524a2.563,2.563,0,0,1-2.712,2.686h-1.529v-5.417h1.529a2.585,2.585,0,0,1,2.712,2.712Z" transform="translate(3176.45 9971.68)"/>
      </g>
    </g>
  </g>
</svg>
